<svg width="17" height="16" viewBox="0 0 17 16" fill="none" xmlns="http://www.w3.org/2000/svg">
<g opacity="0.75" clip-path="url(#clip0_7_605)">
<path fill-rule="evenodd" clip-rule="evenodd" d="M3.9286 1.6753C3.92503 2.11507 4.0884 2.53983 4.38574 2.86387L9.24517 7.99987L4.38574 13.1359C4.08801 13.459 3.92272 13.8822 3.92272 14.3216C3.92272 14.7609 4.08801 15.1842 4.38574 15.5073C4.52813 15.6627 4.70129 15.7867 4.8942 15.8716C5.0871 15.9565 5.29556 16.0003 5.50631 16.0003C5.71706 16.0003 5.92551 15.9565 6.11842 15.8716C6.31133 15.7867 6.48448 15.6627 6.62688 15.5073L12.6063 9.18502C12.9053 8.86324 13.0715 8.44026 13.0715 8.00102C13.0715 7.56177 12.9053 7.13879 12.6063 6.81702L6.6326 0.492444C6.4902 0.337072 6.31705 0.213011 6.12414 0.128139C5.93123 0.0432673 5.72278 -0.000559904 5.51203 -0.000559923C5.30127 -0.000559941 5.09282 0.0432672 4.89991 0.128139C4.707 0.213011 4.53385 0.337072 4.39145 0.492444C4.09448 0.814424 3.93105 1.23729 3.93431 1.6753" fill="#595550"/>
</g>
<defs>
<clipPath id="clip0_7_605">
<rect width="16" height="16" fill="white" transform="translate(16.5 16) rotate(-180)"/>
</clipPath>
</defs>
</svg>
