<svg width="31" height="20" viewBox="0 0 31 20" fill="none" xmlns="http://www.w3.org/2000/svg">
<g opacity="0.75" clip-path="url(#clip0_7_572)">
<path fill-rule="evenodd" clip-rule="evenodd" d="M6.64286 2.09411C6.63595 2.64383 6.95247 3.17478 7.52857 3.57983L16.9437 9.99983L7.52857 16.4198C6.95171 16.8237 6.63147 17.3528 6.63147 17.902C6.63147 18.4512 6.95171 18.9802 7.52857 19.3841C7.80446 19.5783 8.13994 19.7334 8.51371 19.8395C8.88747 19.9456 9.29134 20.0004 9.69968 20.0004C10.108 20.0004 10.5119 19.9456 10.8856 19.8395C11.2594 19.7334 11.5949 19.5783 11.8708 19.3841L23.4559 11.4813C24.0352 11.079 24.3572 10.5503 24.3572 10.0013C24.3572 9.4522 24.0352 8.92348 23.4559 8.52126L11.8819 0.615543C11.606 0.421328 11.2705 0.266252 10.8967 0.160162C10.523 0.0540718 10.1191 -0.000712243 9.71075 -0.000712278C9.30241 -0.000712314 8.89854 0.0540717 8.52478 0.160162C8.15102 0.266251 7.81554 0.421328 7.53964 0.615542C6.96425 1.01802 6.64761 1.5466 6.65393 2.09411" fill="#595550"/>
</g>
<defs>
<clipPath id="clip0_7_572">
<rect width="31" height="20" fill="white" transform="translate(31 20) rotate(-180)"/>
</clipPath>
</defs>
</svg>
