<svg width="25" height="24" viewBox="0 0 25 24" fill="none" xmlns="http://www.w3.org/2000/svg">
<path fill-rule="evenodd" clip-rule="evenodd" d="M6.5 9.0006C6.5 5.68656 9.18656 3 12.5006 3C15.8146 3 18.5012 5.68656 18.5012 9.0006C18.5012 12.3146 15.8146 15.0012 12.5006 15.0012C9.18656 15.0012 6.5 12.3146 6.5 9.0006Z" fill="#D9614C"/>
<path d="M7.61003 14.0098L6.64636 16.9008C5.78716 19.4784 8.52287 21.7794 10.9151 20.4912L12.0267 19.8927C12.3227 19.7333 12.679 19.7333 12.975 19.8927L14.0865 20.4912C16.4788 21.7794 19.2145 19.4784 18.3553 16.9008L17.3915 14.0094C16.1296 15.2418 14.4038 16.0013 12.5006 16.0013C10.5976 16.0013 8.87191 15.242 7.61003 14.0098Z" fill="#D9614C"/>
</svg>
