<svg width="25" height="24" viewBox="0 0 25 24" fill="none" xmlns="http://www.w3.org/2000/svg">
<path fill-rule="evenodd" clip-rule="evenodd" d="M7.75024 4.66355C8.61998 3.36729 10.1231 2 12.5 2C14.8769 2 16.3801 3.36729 17.2498 4.66355C18.1074 5.94174 18.4252 7.2474 18.4711 7.44762C18.4775 7.47579 18.4821 7.49925 18.4853 7.51539L20.02 15.4288C20.3791 17.2803 18.9609 19 17.0749 19H7.92516C6.03916 19 4.62096 17.2803 4.98004 15.4288L6.51476 7.51539C6.51789 7.49925 6.52253 7.47579 6.52897 7.44762C6.57479 7.2474 6.89262 5.94174 7.75024 4.66355Z" fill="#D9614C"/>
<path d="M9.01355 20C9.26552 20.4807 9.65137 20.9831 10.2364 21.3672C10.8462 21.7675 11.613 22 12.5464 22C13.4799 22 14.2467 21.7675 14.8565 21.3672C15.4415 20.9831 15.8274 20.4807 16.0793 20H9.01355Z" fill="#D9614C"/>
</svg>
