<svg width="30" height="35" viewBox="0 0 30 35" fill="none" xmlns="http://www.w3.org/2000/svg">
<path opacity="0.1" d="M29.136 17.5C29.136 26.8176 22.6869 34.136 15 34.136C7.31306 34.136 0.864 26.8176 0.864 17.5C0.864 8.18244 7.31306 0.864 15 0.864C22.6869 0.864 29.136 8.18244 29.136 17.5Z" stroke="#040415" stroke-width="1.728"/>
<path fill-rule="evenodd" clip-rule="evenodd" d="M14.792 11.2499C11.9482 11.2499 9.64294 13.88 9.64294 17.1244C9.64294 20.3688 11.9482 22.999 14.792 22.999C16.0082 22.999 17.1259 22.5179 18.0069 21.7134L19.6804 23.6178L19.7249 23.6615C19.8803 23.7927 20.1006 23.7778 20.2412 23.617C20.3959 23.44 20.3956 23.1536 20.2405 22.9771L18.5867 21.0952C19.4277 20.0496 19.941 18.6554 19.941 17.1244C19.941 13.88 17.6357 11.2499 14.792 11.2499ZM14.7919 12.1548C17.1977 12.1548 19.1479 14.3798 19.1479 17.1245C19.1479 19.8692 17.1977 22.0942 14.7919 22.0942C12.3862 22.0942 10.436 19.8692 10.436 17.1245C10.436 14.3798 12.3862 12.1548 14.7919 12.1548Z" fill="#040415"/>
</svg>
