<svg width="22" height="24" viewBox="0 0 22 24" fill="none" xmlns="http://www.w3.org/2000/svg">
<path d="M14.4581 1.22431C14.8473 1.22331 15.155 1.55314 15.1559 1.99292L15.1568 2.74255C17.6819 2.95844 19.3499 4.8355 19.3527 7.71406L19.3626 16.1398C19.3662 19.2783 17.5588 21.2093 14.6618 21.2143L7.58519 21.2243C4.70623 21.2283 2.87621 19.2513 2.87259 16.1039L2.86263 7.77703C2.85902 4.87948 4.4682 3.00742 6.99329 2.75454L6.99238 2.00492C6.99148 1.56514 7.29015 1.2343 7.68837 1.2343C8.08659 1.2333 8.38526 1.56314 8.38616 2.00292L8.38707 2.70257L13.7631 2.69457L13.7622 1.99492C13.7613 1.55514 14.0599 1.22531 14.4581 1.22431ZM14.8274 15.4162H14.8184C14.402 15.4272 14.0681 15.808 14.0771 16.2678C14.078 16.7275 14.4138 17.1064 14.8301 17.1163C15.2546 17.1153 15.5985 16.7345 15.5976 16.2648C15.5976 15.795 15.2528 15.4162 14.8274 15.4162ZM7.36979 15.4172C6.95347 15.4372 6.62765 15.818 6.62855 16.2778C6.64756 16.7375 6.99148 17.0974 7.4078 17.0764C7.81598 17.0564 8.14089 16.6756 8.12189 16.2158C8.11284 15.766 7.77706 15.4162 7.36979 15.4172ZM11.0986 15.4122C10.6823 15.4332 10.3574 15.813 10.3574 16.2728C10.3764 16.7325 10.7203 17.0914 11.1366 17.0714C11.5439 17.0504 11.8697 16.6706 11.8507 16.2098C11.8416 15.761 11.5059 15.4112 11.0986 15.4122ZM7.36526 11.819C6.94894 11.839 6.62403 12.2198 6.62493 12.6796C6.64303 13.1393 6.98786 13.4992 7.40418 13.4782C7.81145 13.4582 8.13637 13.0774 8.11736 12.6176C8.10831 12.1678 7.77344 11.818 7.36526 11.819ZM11.095 11.784C10.6787 11.804 10.3528 12.1848 10.3537 12.6446C10.3718 13.1044 10.7167 13.4632 11.133 13.4432C11.5403 13.4222 11.8652 13.0424 11.8471 12.5826C11.8371 12.1328 11.5023 11.783 11.095 11.784ZM14.8238 11.789C14.4075 11.799 14.0816 12.1688 14.0825 12.6286V12.6396C14.0916 13.0994 14.4355 13.4482 14.8527 13.4382C15.26 13.4272 15.5849 13.0464 15.5759 12.5866C15.5569 12.1468 15.2302 11.788 14.8238 11.789ZM13.7649 4.2338L8.38888 4.2418L8.38978 5.05039C8.38978 5.48118 8.09202 5.82101 7.6938 5.82101C7.29558 5.82201 6.996 5.48318 6.996 5.05239L6.9951 4.28278C5.23025 4.47568 4.2537 5.60711 4.25641 7.77503L4.25732 8.08587L17.9598 8.06588V7.71606C17.9209 5.56713 16.9326 4.4397 15.1587 4.27178L15.1596 5.0414C15.1596 5.47118 14.8527 5.81201 14.4636 5.81201C14.0654 5.81301 13.7658 5.47318 13.7658 5.0434L13.7649 4.2338Z" fill="#D4E1F5"/>
</svg>
