<svg width="16" height="16" viewBox="0 0 16 16" fill="none" xmlns="http://www.w3.org/2000/svg">
<g clip-path="url(#clip0_29_154)">
<path d="M7.99998 1.33334C4.31331 1.33334 1.33331 4.31334 1.33331 8.00001C1.33331 11.6867 4.31331 14.6667 7.99998 14.6667C11.6866 14.6667 14.6666 11.6867 14.6666 8.00001C14.6666 4.31334 11.6866 1.33334 7.99998 1.33334ZM10.8666 10.8667C10.6066 11.1267 10.1866 11.1267 9.92665 10.8667L7.99998 8.94001L6.07331 10.8667C5.81331 11.1267 5.39331 11.1267 5.13331 10.8667C4.87331 10.6067 4.87331 10.1867 5.13331 9.92668L7.05998 8.00001L5.13331 6.07334C4.87331 5.81334 4.87331 5.39334 5.13331 5.13334C5.39331 4.87334 5.81331 4.87334 6.07331 5.13334L7.99998 7.06001L9.92665 5.13334C10.1866 4.87334 10.6066 4.87334 10.8666 5.13334C11.1266 5.39334 11.1266 5.81334 10.8666 6.07334L8.93998 8.00001L10.8666 9.92668C11.12 10.18 11.12 10.6067 10.8666 10.8667Z" fill="#DADADA"/>
</g>
<defs>
<clipPath id="clip0_29_154">
<rect width="16" height="16" fill="white"/>
</clipPath>
</defs>
</svg>
