<svg width="16" height="16" viewBox="0 0 16 16" fill="none" xmlns="http://www.w3.org/2000/svg">
<g clip-path="url(#clip0_29_229)">
<path d="M8.00004 1.33334C4.31337 1.33334 1.33337 4.31334 1.33337 8.00001C1.33337 11.6867 4.31337 14.6667 8.00004 14.6667C11.6867 14.6667 14.6667 11.6867 14.6667 8.00001C14.6667 4.31334 11.6867 1.33334 8.00004 1.33334ZM10.8667 10.8667C10.6067 11.1267 10.1867 11.1267 9.92671 10.8667L8.00004 8.94001L6.07337 10.8667C5.81337 11.1267 5.39337 11.1267 5.13337 10.8667C4.87337 10.6067 4.87337 10.1867 5.13337 9.92668L7.06004 8.00001L5.13337 6.07334C4.87337 5.81334 4.87337 5.39334 5.13337 5.13334C5.39337 4.87334 5.81337 4.87334 6.07337 5.13334L8.00004 7.06001L9.92671 5.13334C10.1867 4.87334 10.6067 4.87334 10.8667 5.13334C11.1267 5.39334 11.1267 5.81334 10.8667 6.07334L8.94004 8.00001L10.8667 9.92668C11.12 10.18 11.12 10.6067 10.8667 10.8667Z" fill="#DADADA"/>
</g>
<defs>
<clipPath id="clip0_29_229">
<rect width="16" height="16" fill="white"/>
</clipPath>
</defs>
</svg>
