<svg width="16" height="16" viewBox="0 0 16 16" fill="none" xmlns="http://www.w3.org/2000/svg">
<g clip-path="url(#clip0_29_138)">
<path d="M7.99998 1.33331C4.31331 1.33331 1.33331 4.31331 1.33331 7.99998C1.33331 11.6866 4.31331 14.6666 7.99998 14.6666C11.6866 14.6666 14.6666 11.6866 14.6666 7.99998C14.6666 4.31331 11.6866 1.33331 7.99998 1.33331ZM10.8666 10.8666C10.6066 11.1266 10.1866 11.1266 9.92665 10.8666L7.99998 8.93998L6.07331 10.8666C5.81331 11.1266 5.39331 11.1266 5.13331 10.8666C4.87331 10.6066 4.87331 10.1866 5.13331 9.92665L7.05998 7.99998L5.13331 6.07331C4.87331 5.81331 4.87331 5.39331 5.13331 5.13331C5.39331 4.87331 5.81331 4.87331 6.07331 5.13331L7.99998 7.05998L9.92665 5.13331C10.1866 4.87331 10.6066 4.87331 10.8666 5.13331C11.1266 5.39331 11.1266 5.81331 10.8666 6.07331L8.93998 7.99998L10.8666 9.92665C11.12 10.18 11.12 10.6066 10.8666 10.8666Z" fill="#DADADA"/>
</g>
<defs>
<clipPath id="clip0_29_138">
<rect width="16" height="16" fill="white"/>
</clipPath>
</defs>
</svg>
