<svg width="16" height="16" viewBox="0 0 16 16" fill="none" xmlns="http://www.w3.org/2000/svg">
<g clip-path="url(#clip0_29_204)">
<path d="M8.00004 1.33331C4.31337 1.33331 1.33337 4.31331 1.33337 7.99998C1.33337 11.6866 4.31337 14.6666 8.00004 14.6666C11.6867 14.6666 14.6667 11.6866 14.6667 7.99998C14.6667 4.31331 11.6867 1.33331 8.00004 1.33331ZM10.8667 10.8666C10.6067 11.1266 10.1867 11.1266 9.92671 10.8666L8.00004 8.93998L6.07337 10.8666C5.81337 11.1266 5.39337 11.1266 5.13337 10.8666C4.87337 10.6066 4.87337 10.1866 5.13337 9.92665L7.06004 7.99998L5.13337 6.07331C4.87337 5.81331 4.87337 5.39331 5.13337 5.13331C5.39337 4.87331 5.81337 4.87331 6.07337 5.13331L8.00004 7.05998L9.92671 5.13331C10.1867 4.87331 10.6067 4.87331 10.8667 5.13331C11.1267 5.39331 11.1267 5.81331 10.8667 6.07331L8.94004 7.99998L10.8667 9.92665C11.12 10.18 11.12 10.6066 10.8667 10.8666Z" fill="#DADADA"/>
</g>
<defs>
<clipPath id="clip0_29_204">
<rect width="16" height="16" fill="white"/>
</clipPath>
</defs>
</svg>
