<svg width="19" height="17" viewBox="0 0 19 17" fill="none" xmlns="http://www.w3.org/2000/svg">
<path fill-rule="evenodd" clip-rule="evenodd" d="M17.7468 0.289062H16.6858C16.0998 0.289062 15.6248 0.979163 15.6248 1.83045V15.1891C15.6248 16.0404 16.0998 16.7305 16.6858 16.7305H17.7468C18.3328 16.7305 18.8078 16.0404 18.8078 15.1891V1.83045C18.8078 0.979163 18.3328 0.289062 17.7468 0.289062ZM11.7346 3.88538H12.7957C13.3817 3.88538 13.8567 4.57548 13.8567 5.42676V15.1889C13.8567 16.0401 13.3817 16.7302 12.7957 16.7302H11.7346C11.1487 16.7302 10.6736 16.0401 10.6736 15.1889V5.42676C10.6736 4.57548 11.1487 3.88538 11.7346 3.88538ZM7.84394 7.48206H6.78292C6.19693 7.48206 5.72189 8.17216 5.72189 9.02344V15.189C5.72189 16.0403 6.19693 16.7304 6.78292 16.7304H7.84394C8.42993 16.7304 8.90497 16.0403 8.90497 15.189V9.02344C8.90497 8.17216 8.42993 7.48206 7.84394 7.48206ZM2.8927 10.5648H1.83167C1.24568 10.5648 0.770645 11.2549 0.770645 12.1062V15.189C0.770645 16.0402 1.24568 16.7303 1.83167 16.7303H2.8927C3.47869 16.7303 3.95373 16.0402 3.95373 15.189V12.1062C3.95373 11.2549 3.47869 10.5648 2.8927 10.5648Z" fill="black"/>
</svg>
