<svg width="19" height="17" viewBox="0 0 19 17" fill="none" xmlns="http://www.w3.org/2000/svg">
<path fill-rule="evenodd" clip-rule="evenodd" d="M17.2468 0.289062H16.1858C15.5998 0.289062 15.1248 0.979163 15.1248 1.83045V15.1891C15.1248 16.0404 15.5998 16.7305 16.1858 16.7305H17.2468C17.8328 16.7305 18.3078 16.0404 18.3078 15.1891V1.83045C18.3078 0.979163 17.8328 0.289062 17.2468 0.289062ZM11.2346 3.88538H12.2957C12.8817 3.88538 13.3567 4.57548 13.3567 5.42676V15.1889C13.3567 16.0401 12.8817 16.7302 12.2957 16.7302H11.2346C10.6487 16.7302 10.1736 16.0401 10.1736 15.1889V5.42676C10.1736 4.57548 10.6487 3.88538 11.2346 3.88538ZM7.34394 7.48206H6.28292C5.69693 7.48206 5.22189 8.17216 5.22189 9.02344V15.189C5.22189 16.0403 5.69693 16.7304 6.28292 16.7304H7.34394C7.92993 16.7304 8.40497 16.0403 8.40497 15.189V9.02344C8.40497 8.17216 7.92993 7.48206 7.34394 7.48206ZM2.3927 10.5648H1.33167C0.745683 10.5648 0.270645 11.2549 0.270645 12.1062V15.189C0.270645 16.0402 0.745683 16.7303 1.33167 16.7303H2.3927C2.97869 16.7303 3.45373 16.0402 3.45373 15.189V12.1062C3.45373 11.2549 2.97869 10.5648 2.3927 10.5648Z" fill="black"/>
</svg>
