<svg width="25" height="24" viewBox="0 0 25 24" fill="none" xmlns="http://www.w3.org/2000/svg">
<path fill-rule="evenodd" clip-rule="evenodd" d="M5.91959 3.23866C6.73018 3.05852 7.69557 3 8.812 3H10.4296C11.4327 3 12.3694 3.5013 12.9258 4.3359L13.7383 5.5547C13.9238 5.83288 14.236 6 14.5704 6H19.6258C21.2233 6 22.5181 7.26115 22.5029 8.8852C22.4847 10.8192 22.5 12.7539 22.5 14.688C22.5 15.8044 22.4415 16.7698 22.2613 17.5804C22.0787 18.4024 21.7579 19.1251 21.1915 19.6915C20.6251 20.2579 19.9024 20.5787 19.0804 20.7613C18.2698 20.9415 17.3044 21 16.188 21H8.812C7.69557 21 6.73018 20.9415 5.91959 20.7613C5.09764 20.5787 4.37488 20.2579 3.80848 19.6915C3.24209 19.1251 2.92133 18.4024 2.73866 17.5804C2.55852 16.7698 2.5 15.8044 2.5 14.688V9.312C2.5 8.19557 2.55852 7.23018 2.73866 6.41959C2.92133 5.59764 3.24209 4.87488 3.80848 4.30848C4.37488 3.74209 5.09764 3.42133 5.91959 3.23866ZM17.2071 10.2929C17.5976 10.6834 17.5976 11.3166 17.2071 11.7071L12.2735 16.6407C11.8463 17.0679 11.1537 17.0679 10.7265 16.6407L8.79289 14.7071C8.40237 14.3166 8.40237 13.6834 8.79289 13.2929C9.18342 12.9024 9.81658 12.9024 10.2071 13.2929L11.5 14.5858L15.7929 10.2929C16.1834 9.90237 16.8166 9.90237 17.2071 10.2929Z" fill="#D9614C"/>
</svg>
