<svg width="27" height="28" viewBox="0 0 27 28" fill="none" xmlns="http://www.w3.org/2000/svg">
<rect width="26.4653" height="27.2998" rx="8.10133" fill="#FFE4F2"/>
<path d="M19.0797 10.3188C18.533 9.69512 17.6196 9.38326 16.2945 9.38326H16.1401V9.35672C16.1401 8.24197 16.1401 6.86182 13.7214 6.86182H12.7437C10.3251 6.86182 10.3251 8.24861 10.3251 9.35672V9.38989H10.1707C8.83916 9.38989 7.93217 9.70175 7.38541 10.3255C6.74859 11.0554 6.76789 12.0374 6.83221 12.7076L6.83865 12.754L6.87804 13.1808C6.89384 13.3518 6.98459 13.5072 7.12745 13.6026C7.27844 13.7034 7.47211 13.83 7.59768 13.9019C7.68774 13.9617 7.78423 14.0147 7.88071 14.0678C8.98068 14.6916 10.19 15.1096 11.4186 15.3153C11.4765 15.939 11.7402 16.6689 13.149 16.6689C14.5577 16.6689 14.8343 15.9456 14.8793 15.302C16.1915 15.083 17.4587 14.6119 18.6037 13.9219C18.6423 13.9019 18.6681 13.882 18.7002 13.8621C18.9279 13.7294 19.1631 13.5692 19.3826 13.4087C19.5063 13.3181 19.5844 13.1786 19.6008 13.0261V13.0261L19.6329 12.7142C19.6394 12.6744 19.6394 12.6412 19.6458 12.5948C19.6973 11.9246 19.6844 11.0089 19.0797 10.3188ZM13.9337 14.8641C13.9337 15.5674 13.9337 15.6736 13.1425 15.6736C12.3513 15.6736 12.3513 15.5475 12.3513 14.8707V14.0347H13.9337V14.8641ZM11.2449 9.38326V9.35672C11.2449 8.2287 11.2449 7.81067 12.7437 7.81067H13.7214C15.2202 7.81067 15.2202 8.23534 15.2202 9.35672V9.38989H11.2449V9.38326Z" fill="#F478B8"/>
<path d="M18.5183 15.0049C18.9296 14.8086 19.4072 15.1329 19.3672 15.5869L19.1762 17.7571C19.0412 19.0842 18.5137 20.4378 15.6834 20.4378H10.7818C7.95148 20.4378 7.42402 19.0842 7.28893 17.7638L7.10872 15.719C7.06919 15.2703 7.53592 14.9466 7.94599 15.1328C8.65466 15.4546 9.62416 15.8715 10.3156 16.0773C10.5048 16.1336 10.6569 16.273 10.7492 16.4475C11.1627 17.2295 11.9857 17.6443 13.149 17.6443C14.3009 17.6443 15.1331 17.2134 15.5486 16.4278C15.6409 16.2532 15.7933 16.114 15.9824 16.0571C16.7223 15.8346 17.7674 15.3633 18.5183 15.0049Z" fill="#F478B8"/>
</svg>
