<svg width="26" height="28" viewBox="0 0 26 28" fill="none" xmlns="http://www.w3.org/2000/svg">
<path fill-rule="evenodd" clip-rule="evenodd" d="M14.1498 13.8598L14.1526 13.4551C14.1573 11.8499 14.0829 10.4169 13.9376 9.50765C13.9378 9.49128 13.7783 8.58935 13.6737 8.28856C13.5091 7.85366 13.2069 7.48272 12.8254 7.24563C12.5199 7.07609 12.1983 6.98821 11.8607 6.98451C11.5952 6.99482 11.156 7.13353 10.8424 7.25042L10.5816 7.35448C8.85441 8.06953 5.54173 10.4316 4.267 11.8843L4.17309 11.9858L3.75368 12.4616C3.48864 12.8263 3.34567 13.2742 3.34037 13.7576C3.33562 14.1907 3.45383 14.6251 3.69592 14.9777C3.7683 15.0919 3.8853 15.2387 3.98951 15.3627L4.38763 15.8206C5.75821 17.3463 8.73837 19.4978 10.2874 20.2169C10.2873 20.232 11.25 20.6769 11.7103 20.6983L11.7718 20.699C12.4783 20.7068 13.1431 20.281 13.4883 19.5847C13.5827 19.3944 13.6752 19.0206 13.7461 18.6921L13.8739 18.0719C14.0229 17.0739 14.1313 15.5416 14.1498 13.8598ZM20.8637 15.6764C21.7465 15.6861 22.4708 14.9172 22.4813 13.9593C22.4918 13.0013 21.7846 12.2167 20.9018 12.2071L16.964 12.5378C16.2715 12.5302 15.7033 13.1321 15.6951 13.8849C15.6868 14.6364 16.2416 15.2518 16.9342 15.2594L20.8637 15.6764Z" fill="black"/>
</svg>
