<svg width="26" height="28" viewBox="0 0 26 28" fill="none" xmlns="http://www.w3.org/2000/svg">
<path fill-rule="evenodd" clip-rule="evenodd" d="M14.1498 13.8598L14.1526 13.4551C14.1573 11.8499 14.083 10.4169 13.9376 9.50765C13.9378 9.49128 13.7783 8.58935 13.6737 8.28856C13.5091 7.85366 13.2069 7.48272 12.8255 7.24563C12.5199 7.07609 12.1983 6.98821 11.8607 6.98451C11.5952 6.99482 11.156 7.13353 10.8424 7.25042L10.5817 7.35448C8.85444 8.06953 5.54176 10.4316 4.26703 11.8843L4.17312 11.9858L3.75371 12.4616C3.48867 12.8263 3.3457 13.2742 3.3404 13.7576C3.33565 14.1907 3.45386 14.6251 3.69595 14.9777C3.76833 15.0919 3.88533 15.2387 3.98954 15.3627L4.38766 15.8206C5.75824 17.3463 8.7384 19.4978 10.2875 20.2169C10.2873 20.232 11.25 20.6769 11.7104 20.6983L11.7719 20.699C12.4783 20.7068 13.1431 20.281 13.4884 19.5847C13.5827 19.3944 13.6753 19.0206 13.7461 18.6921L13.8739 18.0719C14.0229 17.0739 14.1314 15.5416 14.1498 13.8598ZM20.8638 15.6764C21.7466 15.6861 22.4708 14.9172 22.4814 13.9593C22.4919 13.0013 21.7846 12.2167 20.9018 12.2071L16.9641 12.5378C16.2715 12.5302 15.7034 13.1321 15.6951 13.8849C15.6869 14.6364 16.2417 15.2518 16.9342 15.2594L20.8638 15.6764Z" fill="black"/>
</svg>
