<svg width="44" height="27" viewBox="0 0 44 27" fill="none" xmlns="http://www.w3.org/2000/svg">
<path fill-rule="evenodd" clip-rule="evenodd" d="M22.8819 15.1943L22.8843 15.5429C22.9038 16.9254 23.0397 18.1588 23.2739 18.9405C23.2739 18.9546 23.5294 19.7299 23.6921 19.9879C23.9476 20.3609 24.4096 20.6776 24.9888 20.8781C25.4525 21.0213 25.939 21.0939 26.4482 21.0939C26.8485 21.0825 27.5087 20.9589 27.9799 20.8553L28.3714 20.7632C30.9648 20.1311 35.9224 18.0655 37.821 16.8023L37.961 16.714L38.5858 16.3003C38.9795 15.9837 39.1877 15.5966 39.1877 15.1802C39.1877 14.8072 39.0023 14.4343 38.6313 14.1328C38.5202 14.0352 38.3413 13.9099 38.1821 13.804L37.574 13.4134C35.4815 12.1125 30.9508 10.2876 28.6024 9.68293C28.6024 9.66992 27.143 9.29584 26.4482 9.28174H26.3555C25.2898 9.28174 24.2941 9.65474 23.7849 10.2576C23.6457 10.4224 23.5123 10.7453 23.4108 11.0288L23.2284 11.5642C23.0201 12.4251 22.8819 13.7457 22.8819 15.1943ZM12.725 13.6932C11.3933 13.6932 10.3136 14.3622 10.3136 15.1874C10.3136 16.0125 11.3933 16.6815 12.725 16.6815L18.659 16.3595C19.7037 16.3595 20.5507 15.8358 20.5507 15.1874C20.5507 14.5401 19.7037 14.0153 18.659 14.0153L12.725 13.6932Z" fill="white"/>
</svg>
