<svg width="26" height="27" viewBox="0 0 26 27" fill="none" xmlns="http://www.w3.org/2000/svg">
<path d="M11.7747 18.7097C11.7119 18.6461 11.4432 18.4061 11.2222 18.1825C9.83233 16.8717 7.55733 13.4524 6.86292 11.6627C6.75133 11.3909 6.51517 10.7037 6.5 10.3366C6.5 9.98475 6.578 9.64938 6.73617 9.32937C6.95717 8.93044 7.30492 8.61042 7.7155 8.43506C8.00042 8.32218 8.853 8.14683 8.86817 8.14683C9.80092 7.97147 11.3165 7.87503 12.9913 7.87503C14.5871 7.87503 16.0409 7.97147 16.9877 8.11505C17.0029 8.13148 18.0624 8.30684 18.4253 8.49863C19.0883 8.85043 19.5 9.5376 19.5 10.273V10.3366C19.4837 10.8155 19.0721 11.8227 19.0569 11.8227C18.3614 13.5159 16.198 16.8564 14.7604 18.1989C14.7604 18.1989 14.391 18.5771 14.1602 18.7414C13.8287 18.9979 13.4182 19.125 13.0076 19.125C12.5493 19.125 12.1225 18.9815 11.7747 18.7097" fill="#24252C"/>
</svg>
