<svg width="26" height="28" viewBox="0 0 26 28" fill="none" xmlns="http://www.w3.org/2000/svg">
<path d="M11.7747 19.4026C11.7119 19.3367 11.4432 19.0878 11.2222 18.8559C9.83233 17.4966 7.55733 13.9506 6.86292 12.0946C6.75133 11.8127 6.51517 11.1001 6.5 10.7194C6.5 10.3545 6.578 10.0068 6.73617 9.67489C6.95717 9.26118 7.30492 8.92931 7.7155 8.74746C8.00042 8.6304 8.853 8.44855 8.86817 8.44855C9.80092 8.2667 11.3165 8.16669 12.9913 8.16669C14.5871 8.16669 16.0409 8.2667 16.9877 8.41559C17.0029 8.43264 18.0624 8.61449 18.4253 8.81338C19.0883 9.17821 19.5 9.89083 19.5 10.6535V10.7194C19.4837 11.216 19.0721 12.2605 19.0569 12.2605C18.3614 14.0165 16.198 17.4807 14.7604 18.873C14.7604 18.873 14.391 19.2651 14.1602 19.4356C13.8287 19.7015 13.4182 19.8334 13.0076 19.8334C12.5493 19.8334 12.1225 19.6845 11.7747 19.4026" fill="#24252C"/>
</svg>
