<svg width="26" height="28" viewBox="0 0 26 28" fill="none" xmlns="http://www.w3.org/2000/svg">
<path fill-rule="evenodd" clip-rule="evenodd" d="M14.1499 13.8598L14.1527 13.4551C14.1574 11.8499 14.083 10.4169 13.9377 9.50765C13.9379 9.49128 13.7784 8.58935 13.6738 8.28856C13.5092 7.85366 13.207 7.48272 12.8256 7.24563C12.52 7.07609 12.1984 6.98821 11.8608 6.98451C11.5953 6.99482 11.1561 7.13353 10.8425 7.25042L10.5818 7.35448C8.85453 8.06953 5.54185 10.4316 4.26713 11.8843L4.17321 11.9858L3.7538 12.4616C3.48876 12.8263 3.34579 13.2742 3.34049 13.7576C3.33574 14.1907 3.45395 14.6251 3.69604 14.9777C3.76843 15.0919 3.88542 15.2387 3.98963 15.3627L4.38775 15.8206C5.75833 17.3463 8.7385 19.4978 10.2876 20.2169C10.2874 20.232 11.2501 20.6769 11.7105 20.6983L11.7719 20.699C12.4784 20.7068 13.1432 20.281 13.4885 19.5847C13.5828 19.3944 13.6753 19.0206 13.7462 18.6921L13.874 18.0719C14.023 17.0739 14.1315 15.5416 14.1499 13.8598ZM20.8638 15.6764C21.7466 15.6861 22.4709 14.9172 22.4814 13.9592C22.4919 13.0012 21.7847 12.2167 20.9019 12.207L16.9641 12.5377C16.2716 12.5302 15.7034 13.132 15.6952 13.8848C15.6869 14.6363 16.2417 15.2518 16.9343 15.2594L20.8638 15.6764Z" fill="black"/>
</svg>
