<svg width="22" height="24" viewBox="0 0 22 24" fill="none" xmlns="http://www.w3.org/2000/svg">
<path fill-rule="evenodd" clip-rule="evenodd" d="M8.39418 20.7718V17.7051C8.39416 16.9251 8.97709 16.2912 9.69933 16.286H12.3449C13.0706 16.286 13.6589 16.9213 13.6589 17.7051V17.7051V20.7813C13.6587 21.4436 14.1481 21.9849 14.7612 22.0004H16.5249C18.2831 22.0004 19.7084 20.4611 19.7084 18.5622V18.5622V9.83825C19.699 9.09124 19.3743 8.38976 18.8265 7.93344L12.7946 2.68571C11.7379 1.77198 10.2358 1.77198 9.17903 2.68571L3.17359 7.94297C2.6238 8.39743 2.2985 9.10008 2.29173 9.84777V18.5622C2.29173 20.4611 3.71704 22.0004 5.47524 22.0004H7.23895C7.86723 22.0004 8.37654 21.4504 8.37654 20.7718V20.7718" fill="url(#paint0_linear_10_1142)"/>
<defs>
<linearGradient id="paint0_linear_10_1142" x1="2.29173" y1="2.00041" x2="22.1938" y2="19.9239" gradientUnits="userSpaceOnUse">
<stop stop-color="#8B78FF"/>
<stop offset="1" stop-color="#5451D6"/>
</linearGradient>
</defs>
</svg>
