<svg width="26" height="27" viewBox="0 0 26 27" fill="none" xmlns="http://www.w3.org/2000/svg">
<path d="M11.7747 18.7096C11.7119 18.6461 11.4432 18.4061 11.2222 18.1825C9.83233 16.8717 7.55733 13.4523 6.86292 11.6626C6.75133 11.3908 6.51517 10.7037 6.5 10.3365C6.5 9.98472 6.578 9.64935 6.73617 9.32934C6.95717 8.93041 7.30492 8.61039 7.7155 8.43503C8.00042 8.32215 8.853 8.1468 8.86817 8.1468C9.80092 7.97144 11.3165 7.875 12.9913 7.875C14.5871 7.875 16.0409 7.97144 16.9877 8.11501C17.0029 8.13145 18.0624 8.30681 18.4253 8.4986C19.0883 8.8504 19.5 9.53757 19.5 10.273V10.3365C19.4837 10.8155 19.0721 11.8226 19.0569 11.8226C18.3614 13.5159 16.198 16.8564 14.7604 18.1989C14.7604 18.1989 14.391 18.577 14.1602 18.7414C13.8287 18.9979 13.4182 19.125 13.0076 19.125C12.5493 19.125 12.1225 18.9814 11.7747 18.7096" fill="#24252C"/>
</svg>
