<svg width="25" height="24" viewBox="0 0 25 24" fill="none" xmlns="http://www.w3.org/2000/svg">
<path d="M17.7929 14.2929C17.4024 14.6834 17.4024 15.3166 17.7929 15.7071C18.1834 16.0976 18.8166 16.0976 19.2071 15.7071L22.1201 12.7941C22.1351 12.7791 22.1497 12.7637 22.1637 12.748C22.37 12.5648 22.5 12.2976 22.5 12C22.5 11.7024 22.37 11.4352 22.1637 11.252C22.1497 11.2363 22.1351 11.2209 22.1201 11.2059L19.2071 8.29289C18.8166 7.90237 18.1834 7.90237 17.7929 8.29289C17.4024 8.68342 17.4024 9.31658 17.7929 9.70711L19.0858 11H13.5C12.9477 11 12.5 11.4477 12.5 12C12.5 12.5523 12.9477 13 13.5 13H19.0858L17.7929 14.2929Z" fill="#D9614C"/>
<path d="M5.5 2C3.84315 2 2.5 3.34315 2.5 5V19C2.5 20.6569 3.84315 22 5.5 22H15C16.3807 22 17.5 20.8807 17.5 19.5V16.7326C17.3519 16.647 17.2125 16.5409 17.0858 16.4142C16.4314 15.7598 16.3253 14.7649 16.7674 14H13.5C12.3954 14 11.5 13.1046 11.5 12C11.5 10.8954 12.3954 10 13.5 10H16.7674C16.3253 9.23514 16.4314 8.24015 17.0858 7.58579C17.2125 7.4591 17.3519 7.35296 17.5 7.26738V4.5C17.5 3.11929 16.3807 2 15 2H5.5Z" fill="#D9614C"/>
</svg>
