<svg width="25" height="19" viewBox="0 0 25 19" fill="none" xmlns="http://www.w3.org/2000/svg">
<path d="M10.6294 2.08762L11.8681 1.19287C12.3926 0.814007 13.2407 0.814007 13.7596 1.19287L24.6066 9.02395C25.1311 9.4028 25.1311 10.0154 24.6066 10.3903L13.7596 18.2254C13.2351 18.6042 12.387 18.6042 11.8681 18.2254L10.6294 17.3306C10.0993 16.9477 10.1105 16.323 10.6517 15.9482L17.3753 11.3213H1.33914C0.597032 11.3213 0 10.89 0 10.354V9.06425C0 8.52821 0.597032 8.09695 1.33914 8.09695H17.3753L10.6517 3.47005C10.1049 3.09522 10.0937 2.4705 10.6294 2.08762Z" fill="white"/>
</svg>
