<svg width="24" height="22" viewBox="0 0 24 22" fill="none" xmlns="http://www.w3.org/2000/svg">
<path d="M10.2042 1.68678L11.3934 0.593197C11.8969 0.130148 12.7111 0.130148 13.2092 0.593197L23.6224 10.1645C24.1259 10.6276 24.1259 11.3763 23.6224 11.8344L13.2092 21.4107C12.7057 21.8737 11.8915 21.8737 11.3934 21.4107L10.2042 20.3171C9.69535 19.8491 9.70606 19.0856 10.2256 18.6275L16.6803 12.9724H1.28557C0.57315 12.9724 0 12.4453 0 11.7901V10.2138C0 9.55861 0.57315 9.03153 1.28557 9.03153H16.6803L10.2256 3.37642C9.7007 2.91829 9.68999 2.15476 10.2042 1.68678Z" fill="white"/>
</svg>
