<svg width="23" height="24" viewBox="0 0 23 24" fill="none" xmlns="http://www.w3.org/2000/svg">
<path d="M9.94742 1.87143L11.0448 0.679047C11.5094 0.174164 12.2608 0.174164 12.7205 0.679047L22.3299 11.1151C22.7945 11.62 22.7945 12.4364 22.3299 12.9359L12.7205 23.3773C12.2558 23.8822 11.5045 23.8822 11.0448 23.3773L9.94742 22.1849C9.47782 21.6747 9.48771 20.8421 9.96719 20.3426L15.9236 14.1766H1.71717C1.05973 14.1766 0.530823 13.6019 0.530823 12.8875V11.1688C0.530823 10.4544 1.05973 9.87973 1.71717 9.87973H15.9236L9.96719 3.71371C9.48277 3.2142 9.47288 2.38168 9.94742 1.87143Z" fill="white"/>
</svg>
