<svg width="23" height="23" viewBox="0 0 23 23" fill="none" xmlns="http://www.w3.org/2000/svg">
<path d="M11.3514 0.110168C17.498 0.110168 22.1512 5.29801 22.1512 11.2333C22.1512 18.117 16.6972 22.39 11.3298 22.39C9.55509 22.39 7.5856 21.8991 6.00568 20.9396C5.45379 20.5938 4.98847 20.3372 4.39329 20.538L2.20738 21.2074C1.65549 21.3859 1.1577 20.9396 1.32003 20.3372L2.04506 17.8381C2.16409 17.4922 2.14245 17.1241 1.96931 16.834C1.03867 15.0712 0.508423 13.1411 0.508423 11.2668C0.508423 5.39842 5.06422 0.110168 11.3514 0.110168ZM16.2968 9.84992C15.5285 9.84992 14.9117 10.4859 14.9117 11.278C14.9117 12.0589 15.5285 12.706 16.2968 12.706C17.0651 12.706 17.6819 12.0589 17.6819 11.278C17.6819 10.4859 17.0651 9.84992 16.2968 9.84992ZM11.3081 9.84992C10.5507 9.83877 9.92301 10.4859 9.92301 11.2668C9.92301 12.0589 10.5398 12.6949 11.3081 12.706C12.0765 12.706 12.6933 12.0589 12.6933 11.278C12.6933 10.4859 12.0765 9.84992 11.3081 9.84992ZM6.3195 9.84992C5.55118 9.84992 4.93436 10.4859 4.93436 11.278C4.93436 12.0589 5.562 12.706 6.3195 12.706C7.08781 12.6949 7.70463 12.0589 7.70463 11.278C7.70463 10.4859 7.08781 9.84992 6.3195 9.84992Z" fill="#D4E1F5"/>
</svg>
