<svg width="18" height="23" viewBox="0 0 18 23" fill="none" xmlns="http://www.w3.org/2000/svg">
<path d="M17.3164 7.2014L10.9914 0.653687H2.5582C1.99904 0.653687 1.46278 0.883635 1.0674 1.29295C0.672015 1.70226 0.44989 2.2574 0.44989 2.83626V20.2968C0.44989 20.8757 0.672015 21.4308 1.0674 21.8401C1.46278 22.2495 1.99904 22.4794 2.5582 22.4794H15.2081C15.7672 22.4794 16.3035 22.2495 16.6989 21.8401C17.0942 21.4308 17.3164 20.8757 17.3164 20.2968V7.2014ZM5.72066 19.2055H3.61235V9.38398H5.72066V19.2055ZM9.93728 19.2055H7.82897V12.6578H9.93728V19.2055ZM14.1539 19.2055H12.0456V15.9317H14.1539V19.2055ZM10.9914 8.29269H9.93728V2.83626L15.2081 8.29269H10.9914Z" fill="#D4E1F5"/>
</svg>
