<svg width="18" height="22" viewBox="0 0 18 22" fill="none" xmlns="http://www.w3.org/2000/svg">
<path d="M18 6.59986L11.25 -0.00013619H2.25005C1.65331 -0.00013619 1.08101 0.231649 0.659058 0.644229C0.237101 1.05681 4.79358e-05 1.61639 4.79358e-05 2.19986V19.7999C4.79358e-05 20.3833 0.237101 20.9429 0.659058 21.3555C1.08101 21.7681 1.65331 21.9999 2.25005 21.9999H15.75C16.3468 21.9999 16.9191 21.7681 17.341 21.3555C17.763 20.9429 18 20.3833 18 19.7999V6.59986ZM5.62505 18.6999H3.37505V8.79986H5.62505V18.6999ZM10.125 18.6999H7.87505V12.0999H10.125V18.6999ZM14.625 18.6999H12.375V15.3999H14.625V18.6999ZM11.25 7.69986H10.125V2.19986L15.75 7.69986H11.25Z" fill="#D4E1F5"/>
</svg>
