<svg width="26" height="27" viewBox="0 0 26 27" fill="none" xmlns="http://www.w3.org/2000/svg">
<path d="M20.9516 16.3013L19.8683 14.4338C19.6408 14.0176 19.435 13.2301 19.435 12.7688V9.92256C19.435 7.27881 17.94 4.99506 15.7841 3.92631C15.2208 2.89131 14.1808 2.25006 12.9891 2.25006C11.8083 2.25006 10.7466 2.91381 10.1833 3.96006C8.07081 5.05131 6.60831 7.31256 6.60831 9.92256V12.7688C6.60831 13.2301 6.40248 14.0176 6.17498 14.4226L5.08081 16.3013C4.64748 17.0551 4.54998 17.8876 4.82081 18.6526C5.08081 19.4063 5.69831 19.9913 6.49998 20.2726C8.60165 21.0151 10.8116 21.3751 13.0216 21.3751C15.2316 21.3751 17.4416 21.0151 19.5433 20.2838C20.3016 20.0251 20.8866 19.4288 21.1683 18.6526C21.45 17.8763 21.3741 17.0213 20.9516 16.3013Z" fill="#24252C"/>
<path d="M16.0658 22.5113C15.6108 23.8163 14.4083 24.75 13 24.75C12.1442 24.75 11.2992 24.39 10.7033 23.7488C10.3567 23.4113 10.0967 22.9612 9.94501 22.5C10.0858 22.5225 10.2267 22.5337 10.3783 22.5562C10.6275 22.59 10.8875 22.6237 11.1475 22.6462C11.765 22.7025 12.3933 22.7362 13.0217 22.7362C13.6392 22.7362 14.2567 22.7025 14.8633 22.6462C15.0908 22.6237 15.3183 22.6125 15.535 22.5787C15.7083 22.5562 15.8817 22.5338 16.0658 22.5113Z" fill="#24252C"/>
<circle cx="19.6747" cy="4.62933" r="4.62933" fill="#5F33E1"/>
</svg>
