<svg width="26" height="28" viewBox="0 0 26 28" fill="none" xmlns="http://www.w3.org/2000/svg">
<path d="M18.1458 4.15331V2.33331C18.1458 1.85498 17.7775 1.45831 17.3333 1.45831C16.8892 1.45831 16.5208 1.85498 16.5208 2.33331V4.08331H9.47918V2.33331C9.47918 1.85498 9.11085 1.45831 8.66668 1.45831C8.22251 1.45831 7.85418 1.85498 7.85418 2.33331V4.15331C4.92918 4.44498 3.51001 6.32331 3.29335 9.11164C3.27168 9.44998 3.53168 9.72998 3.83501 9.72998H22.165C22.4792 9.72998 22.7392 9.43831 22.7067 9.11164C22.49 6.32331 21.0708 4.44498 18.1458 4.15331Z" fill="#5F33E1"/>
<path opacity="0.4" d="M21.6667 11.48C22.2625 11.48 22.75 12.005 22.75 12.6466V19.8333C22.75 23.3333 21.125 25.6667 17.3333 25.6667H8.66667C4.875 25.6667 3.25 23.3333 3.25 19.8333V12.6466C3.25 12.005 3.7375 11.48 4.33333 11.48H21.6667Z" fill="#5F33E1"/>
<path d="M9.20833 17.5C8.92667 17.5 8.645 17.3717 8.43917 17.1617C8.24417 16.94 8.125 16.6367 8.125 16.3333C8.125 16.03 8.24417 15.7267 8.43917 15.505C8.7425 15.1784 9.21917 15.0733 9.62 15.26C9.76083 15.3183 9.88 15.4 9.9775 15.505C10.1725 15.7267 10.2917 16.03 10.2917 16.3333C10.2917 16.6367 10.1725 16.94 9.9775 17.1617C9.77167 17.3717 9.49 17.5 9.20833 17.5Z" fill="#5F33E1"/>
<path d="M13 17.5C12.7183 17.5 12.4367 17.3717 12.2308 17.1617C12.0358 16.94 11.9167 16.6367 11.9167 16.3333C11.9167 16.03 12.0358 15.7267 12.2308 15.505C12.3283 15.4 12.4475 15.3183 12.5883 15.26C12.9892 15.0733 13.4658 15.1784 13.7692 15.505C13.9642 15.7267 14.0833 16.03 14.0833 16.3333C14.0833 16.6367 13.9642 16.94 13.7692 17.1617C13.715 17.2083 13.6608 17.255 13.6067 17.3017C13.5417 17.3483 13.4767 17.3834 13.4117 17.4067C13.3467 17.4417 13.2817 17.465 13.2167 17.4767C13.1408 17.4884 13.0758 17.5 13 17.5Z" fill="#5F33E1"/>
<path d="M16.7917 17.5C16.51 17.5 16.2283 17.3717 16.0225 17.1617C15.8275 16.94 15.7083 16.6367 15.7083 16.3333C15.7083 16.03 15.8275 15.7267 16.0225 15.505C16.1308 15.4 16.2392 15.3183 16.38 15.26C16.575 15.1667 16.7917 15.1433 17.0083 15.19C17.0733 15.2017 17.1383 15.225 17.2033 15.26C17.2683 15.2833 17.3333 15.3184 17.3983 15.365C17.4525 15.4117 17.5067 15.4583 17.5608 15.505C17.7558 15.7267 17.875 16.03 17.875 16.3333C17.875 16.6367 17.7558 16.94 17.5608 17.1617C17.5067 17.2083 17.4525 17.255 17.3983 17.3017C17.3333 17.3483 17.2683 17.3834 17.2033 17.4067C17.1383 17.4417 17.0733 17.465 17.0083 17.4767C16.9325 17.4883 16.8567 17.5 16.7917 17.5Z" fill="#5F33E1"/>
<path d="M9.20833 21.5833C9.0675 21.5833 8.92667 21.5484 8.79667 21.49C8.65583 21.4317 8.5475 21.35 8.43917 21.245C8.24417 21.0233 8.125 20.72 8.125 20.4167C8.125 20.1133 8.24417 19.81 8.43917 19.5884C8.5475 19.4834 8.65583 19.4017 8.79667 19.3433C8.99167 19.25 9.20833 19.2267 9.425 19.2733C9.49 19.285 9.555 19.3083 9.62 19.3433C9.685 19.3667 9.75 19.4017 9.815 19.4484C9.86917 19.495 9.92333 19.5417 9.9775 19.5884C10.1725 19.81 10.2917 20.1133 10.2917 20.4167C10.2917 20.72 10.1725 21.0233 9.9775 21.245C9.92333 21.2917 9.86917 21.35 9.815 21.385C9.75 21.4317 9.685 21.4667 9.62 21.49C9.555 21.525 9.49 21.5484 9.425 21.56C9.34917 21.5717 9.28417 21.5833 9.20833 21.5833Z" fill="#5F33E1"/>
<path d="M13 21.5834C12.7183 21.5834 12.4367 21.455 12.2308 21.245C12.0358 21.0233 11.9167 20.72 11.9167 20.4167C11.9167 20.1134 12.0358 19.81 12.2308 19.5884C12.6317 19.1567 13.3683 19.1567 13.7692 19.5884C13.9642 19.81 14.0833 20.1134 14.0833 20.4167C14.0833 20.72 13.9642 21.0233 13.7692 21.245C13.5633 21.455 13.2817 21.5834 13 21.5834Z" fill="#5F33E1"/>
<path d="M16.7917 21.5834C16.51 21.5834 16.2283 21.455 16.0225 21.245C15.8275 21.0233 15.7083 20.72 15.7083 20.4167C15.7083 20.1134 15.8275 19.81 16.0225 19.5884C16.4233 19.1567 17.16 19.1567 17.5608 19.5884C17.7558 19.81 17.875 20.1134 17.875 20.4167C17.875 20.72 17.7558 21.0233 17.5608 21.245C17.355 21.455 17.0733 21.5834 16.7917 21.5834Z" fill="#5F33E1"/>
</svg>
