<svg width="26" height="27" viewBox="0 0 26 27" fill="none" xmlns="http://www.w3.org/2000/svg">
<path d="M18.1458 4.005V2.25C18.1458 1.78875 17.7775 1.40625 17.3333 1.40625C16.8892 1.40625 16.5208 1.78875 16.5208 2.25V3.9375H9.47918V2.25C9.47918 1.78875 9.11085 1.40625 8.66668 1.40625C8.22251 1.40625 7.85418 1.78875 7.85418 2.25V4.005C4.92918 4.28625 3.51001 6.0975 3.29335 8.78625C3.27168 9.1125 3.53168 9.3825 3.83501 9.3825H22.165C22.4792 9.3825 22.7392 9.10125 22.7067 8.78625C22.49 6.0975 21.0708 4.28625 18.1458 4.005Z" fill="#5F33E1"/>
<path opacity="0.4" d="M21.6667 11.07C22.2625 11.07 22.75 11.5763 22.75 12.195V19.125C22.75 22.5 21.125 24.75 17.3333 24.75H8.66667C4.875 24.75 3.25 22.5 3.25 19.125V12.195C3.25 11.5763 3.7375 11.07 4.33333 11.07H21.6667Z" fill="#5F33E1"/>
<path d="M9.20833 16.875C8.92667 16.875 8.645 16.7512 8.43917 16.5487C8.24417 16.335 8.125 16.0425 8.125 15.75C8.125 15.4575 8.24417 15.165 8.43917 14.9513C8.7425 14.6363 9.21917 14.535 9.62 14.715C9.76083 14.7712 9.88 14.85 9.9775 14.9513C10.1725 15.165 10.2917 15.4575 10.2917 15.75C10.2917 16.0425 10.1725 16.335 9.9775 16.5487C9.77167 16.7512 9.49 16.875 9.20833 16.875Z" fill="#5F33E1"/>
<path d="M13 16.875C12.7183 16.875 12.4367 16.7512 12.2308 16.5487C12.0358 16.335 11.9167 16.0425 11.9167 15.75C11.9167 15.4575 12.0358 15.165 12.2308 14.9513C12.3283 14.85 12.4475 14.7712 12.5883 14.715C12.9892 14.535 13.4658 14.6363 13.7692 14.9513C13.9642 15.165 14.0833 15.4575 14.0833 15.75C14.0833 16.0425 13.9642 16.335 13.7692 16.5487C13.715 16.5937 13.6608 16.6387 13.6067 16.6837C13.5417 16.7287 13.4767 16.7625 13.4117 16.785C13.3467 16.8188 13.2817 16.8413 13.2167 16.8525C13.1408 16.8638 13.0758 16.875 13 16.875Z" fill="#5F33E1"/>
<path d="M16.7917 16.875C16.51 16.875 16.2283 16.7513 16.0225 16.5488C15.8275 16.335 15.7083 16.0425 15.7083 15.75C15.7083 15.4575 15.8275 15.165 16.0225 14.9513C16.1308 14.85 16.2392 14.7712 16.38 14.715C16.575 14.625 16.7917 14.6025 17.0083 14.6475C17.0733 14.6588 17.1383 14.6812 17.2033 14.715C17.2683 14.7375 17.3333 14.7713 17.3983 14.8163C17.4525 14.8613 17.5067 14.9063 17.5608 14.9513C17.7558 15.165 17.875 15.4575 17.875 15.75C17.875 16.0425 17.7558 16.335 17.5608 16.5488C17.5067 16.5938 17.4525 16.6387 17.3983 16.6837C17.3333 16.7287 17.2683 16.7625 17.2033 16.785C17.1383 16.8188 17.0733 16.8413 17.0083 16.8525C16.9325 16.8638 16.8567 16.875 16.7917 16.875Z" fill="#5F33E1"/>
<path d="M9.20833 20.8125C9.0675 20.8125 8.92667 20.7788 8.79667 20.7225C8.65583 20.6663 8.5475 20.5875 8.43917 20.4863C8.24417 20.2725 8.125 19.98 8.125 19.6875C8.125 19.395 8.24417 19.1025 8.43917 18.8888C8.5475 18.7875 8.65583 18.7087 8.79667 18.6525C8.99167 18.5625 9.20833 18.54 9.425 18.585C9.49 18.5963 9.555 18.6187 9.62 18.6525C9.685 18.675 9.75 18.7088 9.815 18.7538C9.86917 18.7988 9.92333 18.8438 9.9775 18.8888C10.1725 19.1025 10.2917 19.395 10.2917 19.6875C10.2917 19.98 10.1725 20.2725 9.9775 20.4863C9.92333 20.5313 9.86917 20.5875 9.815 20.6212C9.75 20.6662 9.685 20.7 9.62 20.7225C9.555 20.7563 9.49 20.7788 9.425 20.79C9.34917 20.8013 9.28417 20.8125 9.20833 20.8125Z" fill="#5F33E1"/>
<path d="M13 20.8125C12.7183 20.8125 12.4367 20.6887 12.2308 20.4862C12.0358 20.2725 11.9167 19.98 11.9167 19.6875C11.9167 19.395 12.0358 19.1025 12.2308 18.8888C12.6317 18.4725 13.3683 18.4725 13.7692 18.8888C13.9642 19.1025 14.0833 19.395 14.0833 19.6875C14.0833 19.98 13.9642 20.2725 13.7692 20.4862C13.5633 20.6887 13.2817 20.8125 13 20.8125Z" fill="#5F33E1"/>
<path d="M16.7917 20.8125C16.51 20.8125 16.2283 20.6887 16.0225 20.4862C15.8275 20.2725 15.7083 19.98 15.7083 19.6875C15.7083 19.395 15.8275 19.1025 16.0225 18.8888C16.4233 18.4725 17.16 18.4725 17.5608 18.8888C17.7558 19.1025 17.875 19.395 17.875 19.6875C17.875 19.98 17.7558 20.2725 17.5608 20.4862C17.355 20.6887 17.0733 20.8125 16.7917 20.8125Z" fill="#5F33E1"/>
</svg>
