<svg width="17" height="18" viewBox="0 0 17 18" fill="none" xmlns="http://www.w3.org/2000/svg">
<path fill-rule="evenodd" clip-rule="evenodd" d="M8.74813 4.29268C11.1086 4.29283 13.3789 5.60934 15.0896 7.97011C15.2184 8.15237 15.4244 8.15007 15.5512 7.96496L16.7827 6.16103C16.8469 6.06714 16.8827 5.93996 16.8822 5.80764C16.8817 5.67531 16.8448 5.54875 16.7798 5.45595C12.2897 -0.790087 5.20589 -0.790087 0.715714 5.45595C0.650671 5.54868 0.613766 5.6752 0.613167 5.80753C0.612567 5.93986 0.648322 6.06707 0.712519 6.16103L1.94431 7.96496C2.07111 8.15035 2.27718 8.15266 2.40593 7.97011C4.11689 5.60919 6.38739 4.29267 8.74813 4.29268ZM8.74839 10.1612C10.0453 10.161 11.296 10.8608 12.2574 12.1243C12.3874 12.3037 12.5922 12.2998 12.719 12.1156L13.949 10.3117C14.0138 10.217 14.0497 10.0887 14.0488 9.95529C14.0478 9.82191 14.0101 9.69463 13.944 9.60194C11.0165 5.64921 6.4828 5.64921 3.55525 9.60194C3.48912 9.69463 3.45139 9.82197 3.45052 9.9554C3.44966 10.0888 3.48572 10.2172 3.55063 10.3117L4.7803 12.1156C4.90705 12.2998 5.11188 12.3037 5.24191 12.1243C6.20264 10.8616 7.45231 10.1619 8.74839 10.1612ZM11.2119 14.11C11.2138 14.2438 11.1776 14.3727 11.1118 14.4664L8.98413 17.5831C8.92176 17.6747 8.83672 17.7263 8.748 17.7263C8.65927 17.7263 8.57423 17.6747 8.51186 17.5831L6.38383 14.4664C6.31809 14.3727 6.28193 14.2437 6.28388 14.1099C6.28583 13.9761 6.32572 13.8495 6.39413 13.7598C7.75294 12.0916 9.74305 12.0916 11.1019 13.7598C11.1702 13.8495 11.2101 13.9763 11.2119 14.11Z" fill="black"/>
</svg>
