<svg width="18" height="18" viewBox="0 0 18 18" fill="none" xmlns="http://www.w3.org/2000/svg">
<path fill-rule="evenodd" clip-rule="evenodd" d="M8.93038 4.22835C11.2909 4.2285 13.5611 5.54501 15.2719 7.90578C15.4007 8.08804 15.6066 8.08574 15.7335 7.90063L16.9649 6.0967C17.0292 6.00281 17.065 5.87563 17.0644 5.74331C17.0639 5.61098 17.0271 5.48442 16.9621 5.39162C12.4719 -0.854418 5.38814 -0.854418 0.897965 5.39162C0.832922 5.48435 0.796017 5.61087 0.795418 5.7432C0.794818 5.87552 0.830572 6.00274 0.89477 6.0967L2.12656 7.90063C2.25336 8.08602 2.45943 8.08832 2.58818 7.90578C4.29915 5.54486 6.56964 4.22834 8.93038 4.22835ZM8.93064 10.0968C10.2276 10.0967 11.4782 10.7964 12.4396 12.06C12.5696 12.2393 12.7745 12.2355 12.9012 12.0513L14.1312 10.2473C14.196 10.1527 14.232 10.0243 14.231 9.89096C14.2301 9.75758 14.1924 9.6303 14.1263 9.53761C11.1987 5.58488 6.66505 5.58488 3.7375 9.53761C3.67137 9.6303 3.63364 9.75764 3.63278 9.89107C3.63191 10.0245 3.66797 10.1528 3.73289 10.2473L4.96255 12.0513C5.0893 12.2355 5.29413 12.2393 5.42416 12.06C6.38489 10.7973 7.63456 10.0976 8.93064 10.0968ZM11.3942 14.0457C11.3961 14.1794 11.3598 14.3084 11.2941 14.4021L9.16638 17.5188C9.10401 17.6104 9.01897 17.6619 8.93025 17.6619C8.84152 17.6619 8.75649 17.6104 8.69411 17.5188L6.56608 14.4021C6.50034 14.3083 6.46418 14.1793 6.46613 14.0456C6.46808 13.9118 6.50797 13.7851 6.57638 13.6955C7.93519 12.0273 9.9253 12.0273 11.2841 13.6955C11.3525 13.7852 11.3923 13.9119 11.3942 14.0457Z" fill="black"/>
</svg>
